<svg xmlns="http://www.w3.org/2000/svg" viewBox="0 0 1410.35 496.9"><defs><style>.cls-1{fill:#fff;}.cls-2{fill:#aad16a;}.cls-3{fill:#008072;}.cls-4{fill:#03b26f;}</style></defs><title>資產 2</title><g id="圖層_2" data-name="圖層 2"><g id="圖層_1-2" data-name="圖層 1"><polygon class="cls-1" points="76.45 372.67 0 372.67 110.62 124.22 187.06 124.22 76.45 372.67"/><polygon class="cls-2" points="449.12 372.67 372.67 372.67 483.29 124.22 559.74 124.22 449.12 372.67"/><polygon class="cls-3" points="200.67 372.67 124.22 372.67 290.15 0 366.6 0 200.67 372.67"/><polygon class="cls-4" points="269.59 496.9 193.14 496.9 359.06 124.22 435.51 124.22 269.59 496.9"/><path class="cls-1" d="M697.57,124.22a86,86,0,0,0-86,86V372.67h47.77V210.23a38.23,38.23,0,1,1,76.45,0v9.55H697.57v47.78h38.22V372.67h47.78V210.23A86,86,0,0,0,697.57,124.22Z"/><path class="cls-1" d="M936.46,124.22a124.23,124.23,0,0,0,0,248.45h38.22V324.89H936.46a76.45,76.45,0,1,1,0-152.89h38.22V124.22Z"/><polygon class="cls-4" points="1410.35 124.22 1353.02 124.22 1288.07 210.41 1223.13 124.22 1165.8 124.22 1259.41 248.45 1165.8 372.67 1223.13 372.67 1288.07 286.49 1353.02 372.67 1410.35 372.67 1316.74 248.45 1410.35 124.22"/><path class="cls-4" d="M1070.24,124.22h-66.89V372.67h47.78V172h19.11a76.46,76.46,0,0,1,19.11,150.49v48.72a124.24,124.24,0,0,0-19.11-247Z"/></g></g></svg>